<?xml version="1.0" encoding="iso-8859-1"?>
<!-- Uploaded to: SVG Repo, www.svgrepo.com, Generator: SVG Repo Mixer Tools -->
<svg height="800px" width="800px" version="1.1" id="Layer_1" xmlns="http://www.w3.org/2000/svg" xmlns:xlink="http://www.w3.org/1999/xlink" 
	 viewBox="0 0 508 508" xml:space="preserve">
<circle style="fill:#90DFAA;" cx="254" cy="254" r="254"/>
<path style="fill:#E6E9EE;" d="M456.8,407.2C410.4,468.4,336.8,508,254,508c-2.8,0-5.6,0-8.4,0c-79.2-2.4-149.6-41.6-194-100.8
	c20.8-50.8,56-54.8,56-54.8c56-26.8,89.2-64.8,91.6-67.2h110.4c2,2.4,35.6,40.4,91.6,67.2C400.4,352.4,435.6,356.4,456.8,407.2z"/>
<path style="fill:#2B3B4E;" d="M254,41.2c-53.6,0-96.8,42.4-96.8,94.8c0,6.8,0.8,13.2,2,19.6c3.6-1.2,7.6,0,11.2,2.8
	c0-2,0-3.6,0-5.6c0-1.6,0-2.8,0-4c0.4-16.8,17.2-27.6,32.8-21.2c13.6,5.6,31.2,8.8,50.4,8.8s36.8-3.2,50.4-8.8
	c15.6-6.4,32.4,4.8,32.8,21.2c0,1.2,0,2.8,0,4.4c0,2,0,3.6,0,5.6c4-2.8,8-4,11.2-2.8c1.2-6.4,2-12.8,2-19.6
	C350.8,83.6,307.6,41.2,254,41.2z"/>
<g>
	<path style="fill:#FFD05B;" d="M179.6,204.8c0.4,1.2,0.8,2.4,1.2,3.6h146.4c0.4-1.2,0.8-2.4,1.2-3.6c7.2,3.6,17.6-4,23.6-17.6
		s4.8-27.6-2-31.2c-0.4-0.4-0.8-0.4-1.2-0.4l0,0c-5.2-2.4-11.2,2.8-11.2,2.8l0,0l0,0l0,0c0-1.2,0-9.6,0-11.6
		c-1.6-15.6-18-25.6-32.8-19.6c-13.6,5.6-31.2,8.8-50.4,8.8s-36.8-3.2-50.4-8.8c-15.2-6-31.2,4-32.8,19.6c-0.4,1.2,0,9.6,0,11.6l0,0
		c0,0-6-5.2-11.2-2.8l0,0c-0.4,0-0.8,0.4-1.2,0.4c-7.2,4-8,18-2,31.2C161.6,200.8,172.4,208.4,179.6,204.8z"/>
	<polygon style="fill:#FFD05B;" points="304,280.4 254,280.4 204.4,280.4 173.2,333.2 198,388.8 254,388.8 310.4,388.8 335.2,333.2 
			"/>
</g>
<path style="fill:#FF7058;" d="M208.4,371.2c0,0,36,25.6,91.6,0c0,0-21.6,111.6-45.6,127.2C254,498.4,201.2,404,208.4,371.2z"/>
<path style="fill:#FFD05B;" d="M305.6,282c-0.4-0.4-0.4-1.2-0.8-1.6c0,0-0.8,4.4-6,10.8c-22.4,28-66.4,28-88.8,0
	c-5.2-6.8-6-10.8-6-10.8c-0.4,0.4-0.4,0.8-0.8,1.2c2-3.2,2.8-7.2,3.2-10.8l1.2-14.8l0,0l2.8-46h87.2l4.4,60.8
	c0.4,3.2,1.2,6.4,2.4,9.6C304.8,280.8,305.2,281.2,305.6,282z"/>
<path style="fill:#FFFFFF;" d="M323.2,395.2l7.2,37.6C302,448,281.6,481.2,262.8,508c-2.8,0-5.6,0-8.4,0c-2.8,0-5.6,0-8.4,0
	c-18.8-26.8-39.2-60-67.6-75.2l7.2-37.6h-36c14.8-67.2,52.4-112.4,54.8-114.4c-1.2,2.4-19.2,38.8,7.6,97.6c0,0,23.2,66.8,42.8,120.4
	c18.8-54,42-120.8,42-120.8c27.2-58.8,9.2-95.2,7.6-97.6c2.4,2,40,47.6,54.8,114.4h-36V395.2z"/>
<g>
	<path style="fill:#2B3B4E;" d="M162,155.2c-0.8,0-1.6,0-2.8,0.4l0,0C160,155.2,161.2,155.2,162,155.2z"/>
	<path style="fill:#2B3B4E;" d="M162,155.2c0.8,0,1.6,0,2.8,0.4C164,155.2,162.8,155.2,162,155.2z"/>
	<path style="fill:#2B3B4E;" d="M170.8,158.4c-2-1.6-4-2.4-5.6-2.8C166.8,156,168.8,157.2,170.8,158.4c0-2,0-3.6,0-5.6
		c0-0.4,0-0.4,0-0.8c0,0.4,0,0.4,0,0.8C170.4,154.8,170.4,156.4,170.8,158.4z"/>
</g>
<g>
	<path style="fill:#324A5E;" d="M188,405.6c-3.6-18-19.2-31.2-37.6-31.2c-1.2,0-2.4,0-3.6,0l-4.4-22c-2.8-14.8,5.6-30,20-34.8
		l0.4-0.4c2.4-2,4.8-3.6,6.8-5.6l4.8-4l-9.6,2c-9.6,2-18,7.6-23.6,15.6c-5.6,8.4-7.6,18-5.6,27.6l4.4,21.6c-8.8,2.4-16,8-21.2,15.2
		c-5.6,8.4-7.6,18.4-5.6,28.4l4,19.6c2,10.8,11.6,18.8,22.8,18.8c1.6,0,3.2,0,4.8-0.4l1.6-0.4l-1.2-6.8l-1.6,0.4
		c-1.2,0.4-2,0.4-3.2,0.4c-8,0-14.8-5.6-16.4-13.6l-4-19.6c-1.6-8,0-16.4,4.8-23.2c4.8-7.2,12-11.6,20-13.2c2-0.4,3.6-0.4,5.6-0.4
		c14.8,0,28,10.8,30.8,26l3.6,18.8c0.8,4.4,0,8.8-2.4,12.4s-6.4,6.4-10.8,7.2l-1.6,0.4l1.2,6.8l1.6-0.4
		c12.8-2.4,20.8-14.8,18.4-27.6L188,405.6z"/>
	<path style="fill:#324A5E;" d="M388.8,339.6c-6-8-14.8-12.8-24.4-14l-11.2-1.6l4.8,3.6c2,1.6,4.4,3.2,6.8,4.4l0.8,0.4l0.4,0.4
		c15.6,3.2,26,18,24,33.6l-4.4,35.2l6.8-0.4l4.4-33.6C397.6,357.2,394.8,347.6,388.8,339.6z"/>
</g>
<path style="fill:#CED5E0;" d="M387.6,425.6L387.6,425.6c-10.4,0-19.2-8.4-19.2-19.2l0,0c0-10.4,8.4-19.2,19.2-19.2l0,0
	c10.4,0,19.2,8.4,19.2,19.2l0,0C406.8,417.2,398.4,425.6,387.6,425.6z"/>
<path style="fill:#E6E9EE;" d="M387.6,420.4L387.6,420.4c-7.6,0-13.6-6-13.6-13.6l0,0c0-7.6,6-13.6,13.6-13.6l0,0
	c7.6,0,13.6,6,13.6,13.6l0,0C401.6,414.4,395.2,420.4,387.6,420.4z"/>
<g>
	<path style="fill:#ACB3BA;" d="M181.6,448.4c0.8,4-4,8.4-8,9.2c-4,0.8-5.6-2.4-6.4-6.4c-0.8-4-0.4-7.6,3.6-8.4
		C174.4,442.4,180.8,444.4,181.6,448.4z"/>
	<path style="fill:#ACB3BA;" d="M135.6,457.6c0.8,4,7.2,6.4,11.2,5.6s4.4-4.4,3.6-8.4c-0.8-4-2.4-7.2-6.4-6.4
		C139.6,449.2,134.8,453.6,135.6,457.6z"/>
</g>
<circle style="fill:#FFFFFF;" cx="254" cy="70.4" r="48.8"/>
<circle style="fill:#54C0EB;" cx="254" cy="70.4" r="38"/>
<path style="fill:#84DBFF;" d="M277.6,52.4c-4.8-4-11.2-6-18-6c-16.4,0-30,13.2-30,30c0,6.8,2.4,13.2,6,18
	c-7.2-5.6-11.6-14-11.6-23.6c0-16.4,13.2-30,30-30C263.6,40.8,272.4,45.2,277.6,52.4z"/>
<path style="fill:#FFFFFF;" d="M337.6,158.4c0,0-14.4,9.2-23.6,42.8c-38.8-11.2-80.8-11.2-120,0c-9.2-33.6-23.6-42.8-23.6-42.8
	c9.6,15.2,17.2,32.8,21.2,43.6c-5.2,1.6-10,3.2-14.8,5.2c4.4,11.2,10.4,24.4,17.6,38.8c5.2,10.8,15.6,18.4,27.6,20.4
	c21.2,3.2,42.8,3.2,64,0c12-2,22.4-9.6,27.6-20.4c7.2-14.4,12.8-27.6,17.6-38.8c-4.8-2-10-3.6-14.8-5.2
	C320.4,191.2,328,173.6,337.6,158.4z"/>
</svg>